<?xml version="1.0" encoding="utf-8" standalone="no"?>
<!DOCTYPE svg PUBLIC "-//W3C//DTD SVG 1.1//EN"
  "http://www.w3.org/Graphics/SVG/1.1/DTD/svg11.dtd">
<svg xmlns:xlink="http://www.w3.org/1999/xlink" width="720pt" height="288pt" viewBox="0 0 720 288" xmlns="http://www.w3.org/2000/svg" version="1.1">
 <metadata>
  <rdf:RDF xmlns:dc="http://purl.org/dc/elements/1.1/" xmlns:cc="http://creativecommons.org/ns#" xmlns:rdf="http://www.w3.org/1999/02/22-rdf-syntax-ns#">
   <cc:Work>
    <dc:type rdf:resource="http://purl.org/dc/dcmitype/StillImage"/>
    <dc:date>2024-12-10T19:45:38.949220</dc:date>
    <dc:format>image/svg+xml</dc:format>
    <dc:creator>
     <cc:Agent>
      <dc:title>Matplotlib v3.9.3, https://matplotlib.org/</dc:title>
     </cc:Agent>
    </dc:creator>
   </cc:Work>
  </rdf:RDF>
 </metadata>
 <defs>
  <style type="text/css">*{stroke-linejoin: round; stroke-linecap: butt}</style>
 </defs>
 <g id="figure_1">
  <g id="patch_1">
   <path d="M 0 288 
L 720 288 
L 720 0 
L 0 0 
z
" style="fill: #ffffff"/>
  </g>
  <g id="axes_1">
   <g id="patch_2">
    <path d="M 10.8 138.6 
L 709.2 138.6 
L 709.2 26.88 
L 10.8 26.88 
z
" style="fill: #ffffff"/>
   </g>
   <g id="patch_3">
    <path d="M 10.8 133.521818 
L 17.451429 133.521818 
L 17.451429 31.958182 
L 10.8 31.958182 
z
" clip-path="url(#peadecff302)" style="fill: #bee6bf; stroke: #000000; stroke-linejoin: miter"/>
   </g>
   <g id="patch_4">
    <path d="M 17.451429 133.521818 
L 24.102857 133.521818 
L 24.102857 31.958182 
L 17.451429 31.958182 
z
" clip-path="url(#peadecff302)" style="fill: #bce5be; stroke: #000000; stroke-linejoin: miter"/>
   </g>
   <g id="patch_5">
    <path d="M 24.102857 133.521818 
L 30.754286 133.521818 
L 30.754286 31.958182 
L 24.102857 31.958182 
z
" clip-path="url(#peadecff302)" style="fill: #bae4bd; stroke: #000000; stroke-linejoin: miter"/>
   </g>
   <g id="patch_6">
    <path d="M 30.754286 133.521818 
L 37.405714 133.521818 
L 37.405714 31.958182 
L 30.754286 31.958182 
z
" clip-path="url(#peadecff302)" style="fill: #b7e3bc; stroke: #000000; stroke-linejoin: miter"/>
   </g>
   <g id="patch_7">
    <path d="M 37.405714 133.521818 
L 44.057143 133.521818 
L 44.057143 31.958182 
L 37.405714 31.958182 
z
" clip-path="url(#peadecff302)" style="fill: #b5e2bb; stroke: #000000; stroke-linejoin: miter"/>
   </g>
   <g id="patch_8">
    <path d="M 44.057143 133.521818 
L 50.708571 133.521818 
L 50.708571 31.958182 
L 44.057143 31.958182 
z
" clip-path="url(#peadecff302)" style="fill: #b4e2ba; stroke: #000000; stroke-linejoin: miter"/>
   </g>
   <g id="patch_9">
    <path d="M 50.708571 133.521818 
L 57.36 133.521818 
L 57.36 31.958182 
L 50.708571 31.958182 
z
" clip-path="url(#peadecff302)" style="fill: #b2e1b9; stroke: #000000; stroke-linejoin: miter"/>
   </g>
   <g id="patch_10">
    <path d="M 57.36 133.521818 
L 64.011429 133.521818 
L 64.011429 31.958182 
L 57.36 31.958182 
z
" clip-path="url(#peadecff302)" style="fill: #afe0b8; stroke: #000000; stroke-linejoin: miter"/>
   </g>
   <g id="patch_11">
    <path d="M 64.011429 133.521818 
L 70.662857 133.521818 
L 70.662857 31.958182 
L 64.011429 31.958182 
z
" clip-path="url(#peadecff302)" style="fill: #addfb7; stroke: #000000; stroke-linejoin: miter"/>
   </g>
   <g id="patch_12">
    <path d="M 70.662857 133.521818 
L 77.314286 133.521818 
L 77.314286 31.958182 
L 70.662857 31.958182 
z
" clip-path="url(#peadecff302)" style="fill: #abdeb6; stroke: #000000; stroke-linejoin: miter"/>
   </g>
   <g id="patch_13">
    <path d="M 77.314286 133.521818 
L 83.965714 133.521818 
L 83.965714 31.958182 
L 77.314286 31.958182 
z
" clip-path="url(#peadecff302)" style="fill: #aadeb6; stroke: #000000; stroke-linejoin: miter"/>
   </g>
   <g id="patch_14">
    <path d="M 83.965714 133.521818 
L 90.617143 133.521818 
L 90.617143 31.958182 
L 83.965714 31.958182 
z
" clip-path="url(#peadecff302)" style="fill: #a7ddb5; stroke: #000000; stroke-linejoin: miter"/>
   </g>
   <g id="patch_15">
    <path d="M 90.617143 133.521818 
L 97.268571 133.521818 
L 97.268571 31.958182 
L 90.617143 31.958182 
z
" clip-path="url(#peadecff302)" style="fill: #a5dcb6; stroke: #000000; stroke-linejoin: miter"/>
   </g>
   <g id="patch_16">
    <path d="M 97.268571 133.521818 
L 103.92 133.521818 
L 103.92 31.958182 
L 97.268571 31.958182 
z
" clip-path="url(#peadecff302)" style="fill: #a2dbb7; stroke: #000000; stroke-linejoin: miter"/>
   </g>
   <g id="patch_17">
    <path d="M 103.92 133.521818 
L 110.571429 133.521818 
L 110.571429 31.958182 
L 103.92 31.958182 
z
" clip-path="url(#peadecff302)" style="fill: #9fdab8; stroke: #000000; stroke-linejoin: miter"/>
   </g>
   <g id="patch_18">
    <path d="M 110.571429 133.521818 
L 117.222857 133.521818 
L 117.222857 31.958182 
L 110.571429 31.958182 
z
" clip-path="url(#peadecff302)" style="fill: #9ed9b8; stroke: #000000; stroke-linejoin: miter"/>
   </g>
   <g id="patch_19">
    <path d="M 117.222857 133.521818 
L 123.874286 133.521818 
L 123.874286 31.958182 
L 117.222857 31.958182 
z
" clip-path="url(#peadecff302)" style="fill: #9bd8b9; stroke: #000000; stroke-linejoin: miter"/>
   </g>
   <g id="patch_20">
    <path d="M 123.874286 133.521818 
L 130.525714 133.521818 
L 130.525714 31.958182 
L 123.874286 31.958182 
z
" clip-path="url(#peadecff302)" style="fill: #98d7ba; stroke: #000000; stroke-linejoin: miter"/>
   </g>
   <g id="patch_21">
    <path d="M 130.525714 133.521818 
L 137.177143 133.521818 
L 137.177143 31.958182 
L 130.525714 31.958182 
z
" clip-path="url(#peadecff302)" style="fill: #95d6bb; stroke: #000000; stroke-linejoin: miter"/>
   </g>
   <g id="patch_22">
    <path d="M 137.177143 133.521818 
L 143.828571 133.521818 
L 143.828571 31.958182 
L 137.177143 31.958182 
z
" clip-path="url(#peadecff302)" style="fill: #92d5bc; stroke: #000000; stroke-linejoin: miter"/>
   </g>
   <g id="patch_23">
    <path d="M 143.828571 133.521818 
L 150.48 133.521818 
L 150.48 31.958182 
L 143.828571 31.958182 
z
" clip-path="url(#peadecff302)" style="fill: #8fd4bd; stroke: #000000; stroke-linejoin: miter"/>
   </g>
   <g id="patch_24">
    <path d="M 150.48 133.521818 
L 157.131429 133.521818 
L 157.131429 31.958182 
L 150.48 31.958182 
z
" clip-path="url(#peadecff302)" style="fill: #8ed3be; stroke: #000000; stroke-linejoin: miter"/>
   </g>
   <g id="patch_25">
    <path d="M 157.131429 133.521818 
L 163.782857 133.521818 
L 163.782857 31.958182 
L 157.131429 31.958182 
z
" clip-path="url(#peadecff302)" style="fill: #8bd2bf; stroke: #000000; stroke-linejoin: miter"/>
   </g>
   <g id="patch_26">
    <path d="M 163.782857 133.521818 
L 170.434286 133.521818 
L 170.434286 31.958182 
L 163.782857 31.958182 
z
" clip-path="url(#peadecff302)" style="fill: #88d1c0; stroke: #000000; stroke-linejoin: miter"/>
   </g>
   <g id="patch_27">
    <path d="M 170.434286 133.521818 
L 177.085714 133.521818 
L 177.085714 31.958182 
L 170.434286 31.958182 
z
" clip-path="url(#peadecff302)" style="fill: #86d0c0; stroke: #000000; stroke-linejoin: miter"/>
   </g>
   <g id="patch_28">
    <path d="M 177.085714 133.521818 
L 183.737143 133.521818 
L 183.737143 31.958182 
L 177.085714 31.958182 
z
" clip-path="url(#peadecff302)" style="fill: #83cfc1; stroke: #000000; stroke-linejoin: miter"/>
   </g>
   <g id="patch_29">
    <path d="M 183.737143 133.521818 
L 190.388571 133.521818 
L 190.388571 31.958182 
L 183.737143 31.958182 
z
" clip-path="url(#peadecff302)" style="fill: #81cec2; stroke: #000000; stroke-linejoin: miter"/>
   </g>
   <g id="patch_30">
    <path d="M 190.388571 133.521818 
L 197.04 133.521818 
L 197.04 31.958182 
L 190.388571 31.958182 
z
" clip-path="url(#peadecff302)" style="fill: #7fcdc3; stroke: #000000; stroke-linejoin: miter"/>
   </g>
   <g id="patch_31">
    <path d="M 197.04 133.521818 
L 203.691429 133.521818 
L 203.691429 31.958182 
L 197.04 31.958182 
z
" clip-path="url(#peadecff302)" style="fill: #7cccc4; stroke: #000000; stroke-linejoin: miter"/>
   </g>
   <g id="patch_32">
    <path d="M 203.691429 133.521818 
L 210.342857 133.521818 
L 210.342857 31.958182 
L 203.691429 31.958182 
z
" clip-path="url(#peadecff302)" style="fill: #79cbc5; stroke: #000000; stroke-linejoin: miter"/>
   </g>
   <g id="patch_33">
    <path d="M 210.342857 133.521818 
L 216.994286 133.521818 
L 216.994286 31.958182 
L 210.342857 31.958182 
z
" clip-path="url(#peadecff302)" style="fill: #76c9c6; stroke: #000000; stroke-linejoin: miter"/>
   </g>
   <g id="patch_34">
    <path d="M 216.994286 133.521818 
L 223.645714 133.521818 
L 223.645714 31.958182 
L 216.994286 31.958182 
z
" clip-path="url(#peadecff302)" style="fill: #75c8c6; stroke: #000000; stroke-linejoin: miter"/>
   </g>
   <g id="patch_35">
    <path d="M 223.645714 133.521818 
L 230.297143 133.521818 
L 230.297143 31.958182 
L 223.645714 31.958182 
z
" clip-path="url(#peadecff302)" style="fill: #72c7c7; stroke: #000000; stroke-linejoin: miter"/>
   </g>
   <g id="patch_36">
    <path d="M 230.297143 133.521818 
L 236.948571 133.521818 
L 236.948571 31.958182 
L 230.297143 31.958182 
z
" clip-path="url(#peadecff302)" style="fill: #6fc5c8; stroke: #000000; stroke-linejoin: miter"/>
   </g>
   <g id="patch_37">
    <path d="M 236.948571 133.521818 
L 243.6 133.521818 
L 243.6 31.958182 
L 236.948571 31.958182 
z
" clip-path="url(#peadecff302)" style="fill: #6cc4c9; stroke: #000000; stroke-linejoin: miter"/>
   </g>
   <g id="patch_38">
    <path d="M 243.6 133.521818 
L 250.251429 133.521818 
L 250.251429 31.958182 
L 243.6 31.958182 
z
" clip-path="url(#peadecff302)" style="fill: #69c2ca; stroke: #000000; stroke-linejoin: miter"/>
   </g>
   <g id="patch_39">
    <path d="M 250.251429 133.521818 
L 256.902857 133.521818 
L 256.902857 31.958182 
L 250.251429 31.958182 
z
" clip-path="url(#peadecff302)" style="fill: #68c1ca; stroke: #000000; stroke-linejoin: miter"/>
   </g>
   <g id="patch_40">
    <path d="M 256.902857 133.521818 
L 263.554286 133.521818 
L 263.554286 31.958182 
L 256.902857 31.958182 
z
" clip-path="url(#peadecff302)" style="fill: #65c0cb; stroke: #000000; stroke-linejoin: miter"/>
   </g>
   <g id="patch_41">
    <path d="M 263.554286 133.521818 
L 270.205714 133.521818 
L 270.205714 31.958182 
L 263.554286 31.958182 
z
" clip-path="url(#peadecff302)" style="fill: #62becc; stroke: #000000; stroke-linejoin: miter"/>
   </g>
   <g id="patch_42">
    <path d="M 270.205714 133.521818 
L 276.857143 133.521818 
L 276.857143 31.958182 
L 270.205714 31.958182 
z
" clip-path="url(#peadecff302)" style="fill: #5fbdcd; stroke: #000000; stroke-linejoin: miter"/>
   </g>
   <g id="patch_43">
    <path d="M 276.857143 133.521818 
L 283.508571 133.521818 
L 283.508571 31.958182 
L 276.857143 31.958182 
z
" clip-path="url(#peadecff302)" style="fill: #5dbbce; stroke: #000000; stroke-linejoin: miter"/>
   </g>
   <g id="patch_44">
    <path d="M 283.508571 133.521818 
L 290.16 133.521818 
L 290.16 31.958182 
L 283.508571 31.958182 
z
" clip-path="url(#peadecff302)" style="fill: #5abacf; stroke: #000000; stroke-linejoin: miter"/>
   </g>
   <g id="patch_45">
    <path d="M 290.16 133.521818 
L 296.811429 133.521818 
L 296.811429 31.958182 
L 290.16 31.958182 
z
" clip-path="url(#peadecff302)" style="fill: #58b9d0; stroke: #000000; stroke-linejoin: miter"/>
   </g>
   <g id="patch_46">
    <path d="M 296.811429 133.521818 
L 303.462857 133.521818 
L 303.462857 31.958182 
L 296.811429 31.958182 
z
" clip-path="url(#peadecff302)" style="fill: #56b7d0; stroke: #000000; stroke-linejoin: miter"/>
   </g>
   <g id="patch_47">
    <path d="M 303.462857 133.521818 
L 310.114286 133.521818 
L 310.114286 31.958182 
L 303.462857 31.958182 
z
" clip-path="url(#peadecff302)" style="fill: #53b6d1; stroke: #000000; stroke-linejoin: miter"/>
   </g>
   <g id="patch_48">
    <path d="M 310.114286 133.521818 
L 316.765714 133.521818 
L 316.765714 31.958182 
L 310.114286 31.958182 
z
" clip-path="url(#peadecff302)" style="fill: #50b4d2; stroke: #000000; stroke-linejoin: miter"/>
   </g>
   <g id="patch_49">
    <path d="M 316.765714 133.521818 
L 323.417143 133.521818 
L 323.417143 31.958182 
L 316.765714 31.958182 
z
" clip-path="url(#peadecff302)" style="fill: #4db2d3; stroke: #000000; stroke-linejoin: miter"/>
   </g>
   <g id="patch_50">
    <path d="M 323.417143 133.521818 
L 330.068571 133.521818 
L 330.068571 31.958182 
L 323.417143 31.958182 
z
" clip-path="url(#peadecff302)" style="fill: #4cb1d2; stroke: #000000; stroke-linejoin: miter"/>
   </g>
   <g id="patch_51">
    <path d="M 330.068571 133.521818 
L 336.72 133.521818 
L 336.72 31.958182 
L 330.068571 31.958182 
z
" clip-path="url(#peadecff302)" style="fill: #4aafd1; stroke: #000000; stroke-linejoin: miter"/>
   </g>
   <g id="patch_52">
    <path d="M 336.72 133.521818 
L 343.371429 133.521818 
L 343.371429 31.958182 
L 336.72 31.958182 
z
" clip-path="url(#peadecff302)" style="fill: #48accf; stroke: #000000; stroke-linejoin: miter"/>
   </g>
   <g id="patch_53">
    <path d="M 343.371429 133.521818 
L 350.022857 133.521818 
L 350.022857 31.958182 
L 343.371429 31.958182 
z
" clip-path="url(#peadecff302)" style="fill: #46aace; stroke: #000000; stroke-linejoin: miter"/>
   </g>
   <g id="patch_54">
    <path d="M 350.022857 133.521818 
L 356.674286 133.521818 
L 356.674286 31.958182 
L 350.022857 31.958182 
z
" clip-path="url(#peadecff302)" style="fill: #43a7cd; stroke: #000000; stroke-linejoin: miter"/>
   </g>
   <g id="patch_55">
    <path d="M 356.674286 133.521818 
L 363.325714 133.521818 
L 363.325714 31.958182 
L 356.674286 31.958182 
z
" clip-path="url(#peadecff302)" style="fill: #42a6cc; stroke: #000000; stroke-linejoin: miter"/>
   </g>
   <g id="patch_56">
    <path d="M 363.325714 133.521818 
L 369.977143 133.521818 
L 369.977143 31.958182 
L 363.325714 31.958182 
z
" clip-path="url(#peadecff302)" style="fill: #40a4cb; stroke: #000000; stroke-linejoin: miter"/>
   </g>
   <g id="patch_57">
    <path d="M 369.977143 133.521818 
L 376.628571 133.521818 
L 376.628571 31.958182 
L 369.977143 31.958182 
z
" clip-path="url(#peadecff302)" style="fill: #3ea1c9; stroke: #000000; stroke-linejoin: miter"/>
   </g>
   <g id="patch_58">
    <path d="M 376.628571 133.521818 
L 383.28 133.521818 
L 383.28 31.958182 
L 376.628571 31.958182 
z
" clip-path="url(#peadecff302)" style="fill: #3c9fc8; stroke: #000000; stroke-linejoin: miter"/>
   </g>
   <g id="patch_59">
    <path d="M 383.28 133.521818 
L 389.931429 133.521818 
L 389.931429 31.958182 
L 383.28 31.958182 
z
" clip-path="url(#peadecff302)" style="fill: #3a9cc7; stroke: #000000; stroke-linejoin: miter"/>
   </g>
   <g id="patch_60">
    <path d="M 389.931429 133.521818 
L 396.582857 133.521818 
L 396.582857 31.958182 
L 389.931429 31.958182 
z
" clip-path="url(#peadecff302)" style="fill: #389bc6; stroke: #000000; stroke-linejoin: miter"/>
   </g>
   <g id="patch_61">
    <path d="M 396.582857 133.521818 
L 403.234286 133.521818 
L 403.234286 31.958182 
L 396.582857 31.958182 
z
" clip-path="url(#peadecff302)" style="fill: #3699c5; stroke: #000000; stroke-linejoin: miter"/>
   </g>
   <g id="patch_62">
    <path d="M 403.234286 133.521818 
L 409.885714 133.521818 
L 409.885714 31.958182 
L 403.234286 31.958182 
z
" clip-path="url(#peadecff302)" style="fill: #3496c3; stroke: #000000; stroke-linejoin: miter"/>
   </g>
   <g id="patch_63">
    <path d="M 409.885714 133.521818 
L 416.537143 133.521818 
L 416.537143 31.958182 
L 409.885714 31.958182 
z
" clip-path="url(#peadecff302)" style="fill: #3294c2; stroke: #000000; stroke-linejoin: miter"/>
   </g>
   <g id="patch_64">
    <path d="M 416.537143 133.521818 
L 423.188571 133.521818 
L 423.188571 31.958182 
L 416.537143 31.958182 
z
" clip-path="url(#peadecff302)" style="fill: #3091c1; stroke: #000000; stroke-linejoin: miter"/>
   </g>
   <g id="patch_65">
    <path d="M 423.188571 133.521818 
L 429.84 133.521818 
L 429.84 31.958182 
L 423.188571 31.958182 
z
" clip-path="url(#peadecff302)" style="fill: #2d8fbf; stroke: #000000; stroke-linejoin: miter"/>
   </g>
   <g id="patch_66">
    <path d="M 429.84 133.521818 
L 436.491429 133.521818 
L 436.491429 31.958182 
L 429.84 31.958182 
z
" clip-path="url(#peadecff302)" style="fill: #2c8ebf; stroke: #000000; stroke-linejoin: miter"/>
   </g>
   <g id="patch_67">
    <path d="M 436.491429 133.521818 
L 443.142857 133.521818 
L 443.142857 31.958182 
L 436.491429 31.958182 
z
" clip-path="url(#peadecff302)" style="fill: #2a8bbe; stroke: #000000; stroke-linejoin: miter"/>
   </g>
   <g id="patch_68">
    <path d="M 443.142857 133.521818 
L 449.794286 133.521818 
L 449.794286 31.958182 
L 443.142857 31.958182 
z
" clip-path="url(#peadecff302)" style="fill: #2889bc; stroke: #000000; stroke-linejoin: miter"/>
   </g>
   <g id="patch_69">
    <path d="M 449.794286 133.521818 
L 456.445714 133.521818 
L 456.445714 31.958182 
L 449.794286 31.958182 
z
" clip-path="url(#peadecff302)" style="fill: #2687bb; stroke: #000000; stroke-linejoin: miter"/>
   </g>
   <g id="patch_70">
    <path d="M 456.445714 133.521818 
L 463.097143 133.521818 
L 463.097143 31.958182 
L 456.445714 31.958182 
z
" clip-path="url(#peadecff302)" style="fill: #2484ba; stroke: #000000; stroke-linejoin: miter"/>
   </g>
   <g id="patch_71">
    <path d="M 463.097143 133.521818 
L 469.748571 133.521818 
L 469.748571 31.958182 
L 463.097143 31.958182 
z
" clip-path="url(#peadecff302)" style="fill: #2283ba; stroke: #000000; stroke-linejoin: miter"/>
   </g>
   <g id="patch_72">
    <path d="M 469.748571 133.521818 
L 476.4 133.521818 
L 476.4 31.958182 
L 469.748571 31.958182 
z
" clip-path="url(#peadecff302)" style="fill: #2081b8; stroke: #000000; stroke-linejoin: miter"/>
   </g>
   <g id="patch_73">
    <path d="M 476.4 133.521818 
L 483.051429 133.521818 
L 483.051429 31.958182 
L 476.4 31.958182 
z
" clip-path="url(#peadecff302)" style="fill: #1e7fb7; stroke: #000000; stroke-linejoin: miter"/>
   </g>
   <g id="patch_74">
    <path d="M 483.051429 133.521818 
L 489.702857 133.521818 
L 489.702857 31.958182 
L 483.051429 31.958182 
z
" clip-path="url(#peadecff302)" style="fill: #1c7cb6; stroke: #000000; stroke-linejoin: miter"/>
   </g>
   <g id="patch_75">
    <path d="M 489.702857 133.521818 
L 496.354286 133.521818 
L 496.354286 31.958182 
L 489.702857 31.958182 
z
" clip-path="url(#peadecff302)" style="fill: #1a7ab5; stroke: #000000; stroke-linejoin: miter"/>
   </g>
   <g id="patch_76">
    <path d="M 496.354286 133.521818 
L 503.005714 133.521818 
L 503.005714 31.958182 
L 496.354286 31.958182 
z
" clip-path="url(#peadecff302)" style="fill: #1979b5; stroke: #000000; stroke-linejoin: miter"/>
   </g>
   <g id="patch_77">
    <path d="M 503.005714 133.521818 
L 509.657143 133.521818 
L 509.657143 31.958182 
L 503.005714 31.958182 
z
" clip-path="url(#peadecff302)" style="fill: #1677b3; stroke: #000000; stroke-linejoin: miter"/>
   </g>
   <g id="patch_78">
    <path d="M 509.657143 133.521818 
L 516.308571 133.521818 
L 516.308571 31.958182 
L 509.657143 31.958182 
z
" clip-path="url(#peadecff302)" style="fill: #1475b2; stroke: #000000; stroke-linejoin: miter"/>
   </g>
   <g id="patch_79">
    <path d="M 516.308571 133.521818 
L 522.96 133.521818 
L 522.96 31.958182 
L 516.308571 31.958182 
z
" clip-path="url(#peadecff302)" style="fill: #1272b1; stroke: #000000; stroke-linejoin: miter"/>
   </g>
   <g id="patch_80">
    <path d="M 522.96 133.521818 
L 529.611429 133.521818 
L 529.611429 31.958182 
L 522.96 31.958182 
z
" clip-path="url(#peadecff302)" style="fill: #1070b0; stroke: #000000; stroke-linejoin: miter"/>
   </g>
   <g id="patch_81">
    <path d="M 529.611429 133.521818 
L 536.262857 133.521818 
L 536.262857 31.958182 
L 529.611429 31.958182 
z
" clip-path="url(#peadecff302)" style="fill: #0f6faf; stroke: #000000; stroke-linejoin: miter"/>
   </g>
   <g id="patch_82">
    <path d="M 536.262857 133.521818 
L 542.914286 133.521818 
L 542.914286 31.958182 
L 536.262857 31.958182 
z
" clip-path="url(#peadecff302)" style="fill: #0d6dae; stroke: #000000; stroke-linejoin: miter"/>
   </g>
   <g id="patch_83">
    <path d="M 542.914286 133.521818 
L 549.565714 133.521818 
L 549.565714 31.958182 
L 542.914286 31.958182 
z
" clip-path="url(#peadecff302)" style="fill: #0a6aad; stroke: #000000; stroke-linejoin: miter"/>
   </g>
   <g id="patch_84">
    <path d="M 549.565714 133.521818 
L 556.217143 133.521818 
L 556.217143 31.958182 
L 549.565714 31.958182 
z
" clip-path="url(#peadecff302)" style="fill: #0868ac; stroke: #000000; stroke-linejoin: miter"/>
   </g>
   <g id="patch_85">
    <path d="M 556.217143 133.521818 
L 562.868571 133.521818 
L 562.868571 31.958182 
L 556.217143 31.958182 
z
" clip-path="url(#peadecff302)" style="fill: #0866a9; stroke: #000000; stroke-linejoin: miter"/>
   </g>
   <g id="patch_86">
    <path d="M 562.868571 133.521818 
L 569.52 133.521818 
L 569.52 31.958182 
L 562.868571 31.958182 
z
" clip-path="url(#peadecff302)" style="fill: #0863a7; stroke: #000000; stroke-linejoin: miter"/>
   </g>
   <g id="patch_87">
    <path d="M 569.52 133.521818 
L 576.171429 133.521818 
L 576.171429 31.958182 
L 569.52 31.958182 
z
" clip-path="url(#peadecff302)" style="fill: #0862a5; stroke: #000000; stroke-linejoin: miter"/>
   </g>
   <g id="patch_88">
    <path d="M 576.171429 133.521818 
L 582.822857 133.521818 
L 582.822857 31.958182 
L 576.171429 31.958182 
z
" clip-path="url(#peadecff302)" style="fill: #085fa3; stroke: #000000; stroke-linejoin: miter"/>
   </g>
   <g id="patch_89">
    <path d="M 582.822857 133.521818 
L 589.474286 133.521818 
L 589.474286 31.958182 
L 582.822857 31.958182 
z
" clip-path="url(#peadecff302)" style="fill: #085da0; stroke: #000000; stroke-linejoin: miter"/>
   </g>
   <g id="patch_90">
    <path d="M 589.474286 133.521818 
L 596.125714 133.521818 
L 596.125714 31.958182 
L 589.474286 31.958182 
z
" clip-path="url(#peadecff302)" style="fill: #085a9d; stroke: #000000; stroke-linejoin: miter"/>
   </g>
   <g id="patch_91">
    <path d="M 596.125714 133.521818 
L 602.777143 133.521818 
L 602.777143 31.958182 
L 596.125714 31.958182 
z
" clip-path="url(#peadecff302)" style="fill: #08589b; stroke: #000000; stroke-linejoin: miter"/>
   </g>
   <g id="patch_92">
    <path d="M 602.777143 133.521818 
L 609.428571 133.521818 
L 609.428571 31.958182 
L 602.777143 31.958182 
z
" clip-path="url(#peadecff302)" style="fill: #085799; stroke: #000000; stroke-linejoin: miter"/>
   </g>
   <g id="patch_93">
    <path d="M 609.428571 133.521818 
L 616.08 133.521818 
L 616.08 31.958182 
L 609.428571 31.958182 
z
" clip-path="url(#peadecff302)" style="fill: #085497; stroke: #000000; stroke-linejoin: miter"/>
   </g>
   <g id="patch_94">
    <path d="M 616.08 133.521818 
L 622.731429 133.521818 
L 622.731429 31.958182 
L 616.08 31.958182 
z
" clip-path="url(#peadecff302)" style="fill: #085294; stroke: #000000; stroke-linejoin: miter"/>
   </g>
   <g id="patch_95">
    <path d="M 622.731429 133.521818 
L 629.382857 133.521818 
L 629.382857 31.958182 
L 622.731429 31.958182 
z
" clip-path="url(#peadecff302)" style="fill: #084f91; stroke: #000000; stroke-linejoin: miter"/>
   </g>
   <g id="patch_96">
    <path d="M 629.382857 133.521818 
L 636.034286 133.521818 
L 636.034286 31.958182 
L 629.382857 31.958182 
z
" clip-path="url(#peadecff302)" style="fill: #084d8e; stroke: #000000; stroke-linejoin: miter"/>
   </g>
   <g id="patch_97">
    <path d="M 636.034286 133.521818 
L 642.685714 133.521818 
L 642.685714 31.958182 
L 636.034286 31.958182 
z
" clip-path="url(#peadecff302)" style="fill: #084b8d; stroke: #000000; stroke-linejoin: miter"/>
   </g>
   <g id="patch_98">
    <path d="M 642.685714 133.521818 
L 649.337143 133.521818 
L 649.337143 31.958182 
L 642.685714 31.958182 
z
" clip-path="url(#peadecff302)" style="fill: #08498a; stroke: #000000; stroke-linejoin: miter"/>
   </g>
   <g id="patch_99">
    <path d="M 649.337143 133.521818 
L 655.988571 133.521818 
L 655.988571 31.958182 
L 649.337143 31.958182 
z
" clip-path="url(#peadecff302)" style="fill: #084688; stroke: #000000; stroke-linejoin: miter"/>
   </g>
   <g id="patch_100">
    <path d="M 655.988571 133.521818 
L 662.64 133.521818 
L 662.64 31.958182 
L 655.988571 31.958182 
z
" clip-path="url(#peadecff302)" style="fill: #084485; stroke: #000000; stroke-linejoin: miter"/>
   </g>
   <g id="patch_101">
    <path d="M 662.64 133.521818 
L 669.291429 133.521818 
L 669.291429 31.958182 
L 662.64 31.958182 
z
" clip-path="url(#peadecff302)" style="fill: #084182; stroke: #000000; stroke-linejoin: miter"/>
   </g>
   <g id="patch_102">
    <path d="M 669.291429 133.521818 
L 675.942857 133.521818 
L 675.942857 31.958182 
L 669.291429 31.958182 
z
" clip-path="url(#peadecff302)" style="fill: #084081; stroke: #000000; stroke-linejoin: miter"/>
   </g>
   <g id="matplotlib.axis_1"/>
   <g id="matplotlib.axis_2"/>
   <g id="patch_103">
    <path d="M 10.8 138.6 
L 10.8 26.88 
" style="fill: none; stroke: #000000; stroke-width: 0.8; stroke-linejoin: miter; stroke-linecap: square"/>
   </g>
   <g id="patch_104">
    <path d="M 709.2 138.6 
L 709.2 26.88 
" style="fill: none; stroke: #000000; stroke-width: 0.8; stroke-linejoin: miter; stroke-linecap: square"/>
   </g>
   <g id="patch_105">
    <path d="M 10.8 138.6 
L 709.2 138.6 
" style="fill: none; stroke: #000000; stroke-width: 0.8; stroke-linejoin: miter; stroke-linecap: square"/>
   </g>
   <g id="patch_106">
    <path d="M 10.8 26.88 
L 709.2 26.88 
" style="fill: none; stroke: #000000; stroke-width: 0.8; stroke-linejoin: miter; stroke-linecap: square"/>
   </g>
   <g id="text_1">
    <!-- Data Before Shuffling -->
    <g transform="translate(295.66125 20.88) scale(0.12 -0.12)">
     <defs>
      <path id="DejaVuSans-44" d="M 1259 4147 
L 1259 519 
L 2022 519 
Q 2988 519 3436 956 
Q 3884 1394 3884 2338 
Q 3884 3275 3436 3711 
Q 2988 4147 2022 4147 
L 1259 4147 
z
M 628 4666 
L 1925 4666 
Q 3281 4666 3915 4102 
Q 4550 3538 4550 2338 
Q 4550 1131 3912 565 
Q 3275 0 1925 0 
L 628 0 
L 628 4666 
z
" transform="scale(0.015625)"/>
      <path id="DejaVuSans-61" d="M 2194 1759 
Q 1497 1759 1228 1600 
Q 959 1441 959 1056 
Q 959 750 1161 570 
Q 1363 391 1709 391 
Q 2188 391 2477 730 
Q 2766 1069 2766 1631 
L 2766 1759 
L 2194 1759 
z
M 3341 1997 
L 3341 0 
L 2766 0 
L 2766 531 
Q 2569 213 2275 61 
Q 1981 -91 1556 -91 
Q 1019 -91 701 211 
Q 384 513 384 1019 
Q 384 1609 779 1909 
Q 1175 2209 1959 2209 
L 2766 2209 
L 2766 2266 
Q 2766 2663 2505 2880 
Q 2244 3097 1772 3097 
Q 1472 3097 1187 3025 
Q 903 2953 641 2809 
L 641 3341 
Q 956 3463 1253 3523 
Q 1550 3584 1831 3584 
Q 2591 3584 2966 3190 
Q 3341 2797 3341 1997 
z
" transform="scale(0.015625)"/>
      <path id="DejaVuSans-74" d="M 1172 4494 
L 1172 3500 
L 2356 3500 
L 2356 3053 
L 1172 3053 
L 1172 1153 
Q 1172 725 1289 603 
Q 1406 481 1766 481 
L 2356 481 
L 2356 0 
L 1766 0 
Q 1100 0 847 248 
Q 594 497 594 1153 
L 594 3053 
L 172 3053 
L 172 3500 
L 594 3500 
L 594 4494 
L 1172 4494 
z
" transform="scale(0.015625)"/>
      <path id="DejaVuSans-20" transform="scale(0.015625)"/>
      <path id="DejaVuSans-42" d="M 1259 2228 
L 1259 519 
L 2272 519 
Q 2781 519 3026 730 
Q 3272 941 3272 1375 
Q 3272 1813 3026 2020 
Q 2781 2228 2272 2228 
L 1259 2228 
z
M 1259 4147 
L 1259 2741 
L 2194 2741 
Q 2656 2741 2882 2914 
Q 3109 3088 3109 3444 
Q 3109 3797 2882 3972 
Q 2656 4147 2194 4147 
L 1259 4147 
z
M 628 4666 
L 2241 4666 
Q 2963 4666 3353 4366 
Q 3744 4066 3744 3513 
Q 3744 3084 3544 2831 
Q 3344 2578 2956 2516 
Q 3422 2416 3680 2098 
Q 3938 1781 3938 1306 
Q 3938 681 3513 340 
Q 3088 0 2303 0 
L 628 0 
L 628 4666 
z
" transform="scale(0.015625)"/>
      <path id="DejaVuSans-65" d="M 3597 1894 
L 3597 1613 
L 953 1613 
Q 991 1019 1311 708 
Q 1631 397 2203 397 
Q 2534 397 2845 478 
Q 3156 559 3463 722 
L 3463 178 
Q 3153 47 2828 -22 
Q 2503 -91 2169 -91 
Q 1331 -91 842 396 
Q 353 884 353 1716 
Q 353 2575 817 3079 
Q 1281 3584 2069 3584 
Q 2775 3584 3186 3129 
Q 3597 2675 3597 1894 
z
M 3022 2063 
Q 3016 2534 2758 2815 
Q 2500 3097 2075 3097 
Q 1594 3097 1305 2825 
Q 1016 2553 972 2059 
L 3022 2063 
z
" transform="scale(0.015625)"/>
      <path id="DejaVuSans-66" d="M 2375 4863 
L 2375 4384 
L 1825 4384 
Q 1516 4384 1395 4259 
Q 1275 4134 1275 3809 
L 1275 3500 
L 2222 3500 
L 2222 3053 
L 1275 3053 
L 1275 0 
L 697 0 
L 697 3053 
L 147 3053 
L 147 3500 
L 697 3500 
L 697 3744 
Q 697 4328 969 4595 
Q 1241 4863 1831 4863 
L 2375 4863 
z
" transform="scale(0.015625)"/>
      <path id="DejaVuSans-6f" d="M 1959 3097 
Q 1497 3097 1228 2736 
Q 959 2375 959 1747 
Q 959 1119 1226 758 
Q 1494 397 1959 397 
Q 2419 397 2687 759 
Q 2956 1122 2956 1747 
Q 2956 2369 2687 2733 
Q 2419 3097 1959 3097 
z
M 1959 3584 
Q 2709 3584 3137 3096 
Q 3566 2609 3566 1747 
Q 3566 888 3137 398 
Q 2709 -91 1959 -91 
Q 1206 -91 779 398 
Q 353 888 353 1747 
Q 353 2609 779 3096 
Q 1206 3584 1959 3584 
z
" transform="scale(0.015625)"/>
      <path id="DejaVuSans-72" d="M 2631 2963 
Q 2534 3019 2420 3045 
Q 2306 3072 2169 3072 
Q 1681 3072 1420 2755 
Q 1159 2438 1159 1844 
L 1159 0 
L 581 0 
L 581 3500 
L 1159 3500 
L 1159 2956 
Q 1341 3275 1631 3429 
Q 1922 3584 2338 3584 
Q 2397 3584 2469 3576 
Q 2541 3569 2628 3553 
L 2631 2963 
z
" transform="scale(0.015625)"/>
      <path id="DejaVuSans-53" d="M 3425 4513 
L 3425 3897 
Q 3066 4069 2747 4153 
Q 2428 4238 2131 4238 
Q 1616 4238 1336 4038 
Q 1056 3838 1056 3469 
Q 1056 3159 1242 3001 
Q 1428 2844 1947 2747 
L 2328 2669 
Q 3034 2534 3370 2195 
Q 3706 1856 3706 1288 
Q 3706 609 3251 259 
Q 2797 -91 1919 -91 
Q 1588 -91 1214 -16 
Q 841 59 441 206 
L 441 856 
Q 825 641 1194 531 
Q 1563 422 1919 422 
Q 2459 422 2753 634 
Q 3047 847 3047 1241 
Q 3047 1584 2836 1778 
Q 2625 1972 2144 2069 
L 1759 2144 
Q 1053 2284 737 2584 
Q 422 2884 422 3419 
Q 422 4038 858 4394 
Q 1294 4750 2059 4750 
Q 2388 4750 2728 4690 
Q 3069 4631 3425 4513 
z
" transform="scale(0.015625)"/>
      <path id="DejaVuSans-68" d="M 3513 2113 
L 3513 0 
L 2938 0 
L 2938 2094 
Q 2938 2591 2744 2837 
Q 2550 3084 2163 3084 
Q 1697 3084 1428 2787 
Q 1159 2491 1159 1978 
L 1159 0 
L 581 0 
L 581 4863 
L 1159 4863 
L 1159 2956 
Q 1366 3272 1645 3428 
Q 1925 3584 2291 3584 
Q 2894 3584 3203 3211 
Q 3513 2838 3513 2113 
z
" transform="scale(0.015625)"/>
      <path id="DejaVuSans-75" d="M 544 1381 
L 544 3500 
L 1119 3500 
L 1119 1403 
Q 1119 906 1312 657 
Q 1506 409 1894 409 
Q 2359 409 2629 706 
Q 2900 1003 2900 1516 
L 2900 3500 
L 3475 3500 
L 3475 0 
L 2900 0 
L 2900 538 
Q 2691 219 2414 64 
Q 2138 -91 1772 -91 
Q 1169 -91 856 284 
Q 544 659 544 1381 
z
M 1991 3584 
L 1991 3584 
z
" transform="scale(0.015625)"/>
      <path id="DejaVuSans-6c" d="M 603 4863 
L 1178 4863 
L 1178 0 
L 603 0 
L 603 4863 
z
" transform="scale(0.015625)"/>
      <path id="DejaVuSans-69" d="M 603 3500 
L 1178 3500 
L 1178 0 
L 603 0 
L 603 3500 
z
M 603 4863 
L 1178 4863 
L 1178 4134 
L 603 4134 
L 603 4863 
z
" transform="scale(0.015625)"/>
      <path id="DejaVuSans-6e" d="M 3513 2113 
L 3513 0 
L 2938 0 
L 2938 2094 
Q 2938 2591 2744 2837 
Q 2550 3084 2163 3084 
Q 1697 3084 1428 2787 
Q 1159 2491 1159 1978 
L 1159 0 
L 581 0 
L 581 3500 
L 1159 3500 
L 1159 2956 
Q 1366 3272 1645 3428 
Q 1925 3584 2291 3584 
Q 2894 3584 3203 3211 
Q 3513 2838 3513 2113 
z
" transform="scale(0.015625)"/>
      <path id="DejaVuSans-67" d="M 2906 1791 
Q 2906 2416 2648 2759 
Q 2391 3103 1925 3103 
Q 1463 3103 1205 2759 
Q 947 2416 947 1791 
Q 947 1169 1205 825 
Q 1463 481 1925 481 
Q 2391 481 2648 825 
Q 2906 1169 2906 1791 
z
M 3481 434 
Q 3481 -459 3084 -895 
Q 2688 -1331 1869 -1331 
Q 1566 -1331 1297 -1286 
Q 1028 -1241 775 -1147 
L 775 -588 
Q 1028 -725 1275 -790 
Q 1522 -856 1778 -856 
Q 2344 -856 2625 -561 
Q 2906 -266 2906 331 
L 2906 616 
Q 2728 306 2450 153 
Q 2172 0 1784 0 
Q 1141 0 747 490 
Q 353 981 353 1791 
Q 353 2603 747 3093 
Q 1141 3584 1784 3584 
Q 2172 3584 2450 3431 
Q 2728 3278 2906 2969 
L 2906 3500 
L 3481 3500 
L 3481 434 
z
" transform="scale(0.015625)"/>
     </defs>
     <use xlink:href="#DejaVuSans-44"/>
     <use xlink:href="#DejaVuSans-61" x="77.001953"/>
     <use xlink:href="#DejaVuSans-74" x="138.28125"/>
     <use xlink:href="#DejaVuSans-61" x="177.490234"/>
     <use xlink:href="#DejaVuSans-20" x="238.769531"/>
     <use xlink:href="#DejaVuSans-42" x="270.556641"/>
     <use xlink:href="#DejaVuSans-65" x="339.160156"/>
     <use xlink:href="#DejaVuSans-66" x="400.683594"/>
     <use xlink:href="#DejaVuSans-6f" x="435.888672"/>
     <use xlink:href="#DejaVuSans-72" x="497.070312"/>
     <use xlink:href="#DejaVuSans-65" x="535.933594"/>
     <use xlink:href="#DejaVuSans-20" x="597.457031"/>
     <use xlink:href="#DejaVuSans-53" x="629.244141"/>
     <use xlink:href="#DejaVuSans-68" x="692.720703"/>
     <use xlink:href="#DejaVuSans-75" x="756.099609"/>
     <use xlink:href="#DejaVuSans-66" x="819.478516"/>
     <use xlink:href="#DejaVuSans-66" x="854.683594"/>
     <use xlink:href="#DejaVuSans-6c" x="889.888672"/>
     <use xlink:href="#DejaVuSans-69" x="917.671875"/>
     <use xlink:href="#DejaVuSans-6e" x="945.455078"/>
     <use xlink:href="#DejaVuSans-67" x="1008.833984"/>
    </g>
   </g>
  </g>
  <g id="axes_2">
   <g id="patch_107">
    <path d="M 10.8 277.2 
L 709.2 277.2 
L 709.2 165.48 
L 10.8 165.48 
z
" style="fill: #ffffff"/>
   </g>
   <g id="patch_108">
    <path d="M 10.8 272.121818 
L 17.451429 272.121818 
L 17.451429 170.558182 
L 10.8 170.558182 
z
" clip-path="url(#p381e3602b6)" style="fill: #81cec2; stroke: #000000; stroke-linejoin: miter"/>
   </g>
   <g id="patch_109">
    <path d="M 17.451429 272.121818 
L 24.102857 272.121818 
L 24.102857 170.558182 
L 17.451429 170.558182 
z
" clip-path="url(#p381e3602b6)" style="fill: #085da0; stroke: #000000; stroke-linejoin: miter"/>
   </g>
   <g id="patch_110">
    <path d="M 24.102857 272.121818 
L 30.754286 272.121818 
L 30.754286 170.558182 
L 24.102857 170.558182 
z
" clip-path="url(#p381e3602b6)" style="fill: #bae4bd; stroke: #000000; stroke-linejoin: miter"/>
   </g>
   <g id="patch_111">
    <path d="M 30.754286 272.121818 
L 37.405714 272.121818 
L 37.405714 170.558182 
L 30.754286 170.558182 
z
" clip-path="url(#p381e3602b6)" style="fill: #3c9fc8; stroke: #000000; stroke-linejoin: miter"/>
   </g>
   <g id="patch_112">
    <path d="M 37.405714 272.121818 
L 44.057143 272.121818 
L 44.057143 170.558182 
L 37.405714 170.558182 
z
" clip-path="url(#p381e3602b6)" style="fill: #1475b2; stroke: #000000; stroke-linejoin: miter"/>
   </g>
   <g id="patch_113">
    <path d="M 44.057143 272.121818 
L 50.708571 272.121818 
L 50.708571 170.558182 
L 44.057143 170.558182 
z
" clip-path="url(#p381e3602b6)" style="fill: #084d8e; stroke: #000000; stroke-linejoin: miter"/>
   </g>
   <g id="patch_114">
    <path d="M 50.708571 272.121818 
L 57.36 272.121818 
L 57.36 170.558182 
L 50.708571 170.558182 
z
" clip-path="url(#p381e3602b6)" style="fill: #9bd8b9; stroke: #000000; stroke-linejoin: miter"/>
   </g>
   <g id="patch_115">
    <path d="M 57.36 272.121818 
L 64.011429 272.121818 
L 64.011429 170.558182 
L 57.36 170.558182 
z
" clip-path="url(#p381e3602b6)" style="fill: #1979b5; stroke: #000000; stroke-linejoin: miter"/>
   </g>
   <g id="patch_116">
    <path d="M 64.011429 272.121818 
L 70.662857 272.121818 
L 70.662857 170.558182 
L 64.011429 170.558182 
z
" clip-path="url(#p381e3602b6)" style="fill: #3ea1c9; stroke: #000000; stroke-linejoin: miter"/>
   </g>
   <g id="patch_117">
    <path d="M 70.662857 272.121818 
L 77.314286 272.121818 
L 77.314286 170.558182 
L 70.662857 170.558182 
z
" clip-path="url(#p381e3602b6)" style="fill: #08498a; stroke: #000000; stroke-linejoin: miter"/>
   </g>
   <g id="patch_118">
    <path d="M 77.314286 272.121818 
L 83.965714 272.121818 
L 83.965714 170.558182 
L 77.314286 170.558182 
z
" clip-path="url(#p381e3602b6)" style="fill: #40a4cb; stroke: #000000; stroke-linejoin: miter"/>
   </g>
   <g id="patch_119">
    <path d="M 83.965714 272.121818 
L 90.617143 272.121818 
L 90.617143 170.558182 
L 83.965714 170.558182 
z
" clip-path="url(#p381e3602b6)" style="fill: #084f91; stroke: #000000; stroke-linejoin: miter"/>
   </g>
   <g id="patch_120">
    <path d="M 90.617143 272.121818 
L 97.268571 272.121818 
L 97.268571 170.558182 
L 90.617143 170.558182 
z
" clip-path="url(#p381e3602b6)" style="fill: #0f6faf; stroke: #000000; stroke-linejoin: miter"/>
   </g>
   <g id="patch_121">
    <path d="M 97.268571 272.121818 
L 103.92 272.121818 
L 103.92 170.558182 
L 97.268571 170.558182 
z
" clip-path="url(#p381e3602b6)" style="fill: #a2dbb7; stroke: #000000; stroke-linejoin: miter"/>
   </g>
   <g id="patch_122">
    <path d="M 103.92 272.121818 
L 110.571429 272.121818 
L 110.571429 170.558182 
L 103.92 170.558182 
z
" clip-path="url(#p381e3602b6)" style="fill: #afe0b8; stroke: #000000; stroke-linejoin: miter"/>
   </g>
   <g id="patch_123">
    <path d="M 110.571429 272.121818 
L 117.222857 272.121818 
L 117.222857 170.558182 
L 110.571429 170.558182 
z
" clip-path="url(#p381e3602b6)" style="fill: #76c9c6; stroke: #000000; stroke-linejoin: miter"/>
   </g>
   <g id="patch_124">
    <path d="M 117.222857 272.121818 
L 123.874286 272.121818 
L 123.874286 170.558182 
L 117.222857 170.558182 
z
" clip-path="url(#p381e3602b6)" style="fill: #8bd2bf; stroke: #000000; stroke-linejoin: miter"/>
   </g>
   <g id="patch_125">
    <path d="M 123.874286 272.121818 
L 130.525714 272.121818 
L 130.525714 170.558182 
L 123.874286 170.558182 
z
" clip-path="url(#p381e3602b6)" style="fill: #86d0c0; stroke: #000000; stroke-linejoin: miter"/>
   </g>
   <g id="patch_126">
    <path d="M 130.525714 272.121818 
L 137.177143 272.121818 
L 137.177143 170.558182 
L 130.525714 170.558182 
z
" clip-path="url(#p381e3602b6)" style="fill: #6fc5c8; stroke: #000000; stroke-linejoin: miter"/>
   </g>
   <g id="patch_127">
    <path d="M 137.177143 272.121818 
L 143.828571 272.121818 
L 143.828571 170.558182 
L 137.177143 170.558182 
z
" clip-path="url(#p381e3602b6)" style="fill: #addfb7; stroke: #000000; stroke-linejoin: miter"/>
   </g>
   <g id="patch_128">
    <path d="M 143.828571 272.121818 
L 150.48 272.121818 
L 150.48 170.558182 
L 143.828571 170.558182 
z
" clip-path="url(#p381e3602b6)" style="fill: #56b7d0; stroke: #000000; stroke-linejoin: miter"/>
   </g>
   <g id="patch_129">
    <path d="M 150.48 272.121818 
L 157.131429 272.121818 
L 157.131429 170.558182 
L 150.48 170.558182 
z
" clip-path="url(#p381e3602b6)" style="fill: #2d8fbf; stroke: #000000; stroke-linejoin: miter"/>
   </g>
   <g id="patch_130">
    <path d="M 157.131429 272.121818 
L 163.782857 272.121818 
L 163.782857 170.558182 
L 157.131429 170.558182 
z
" clip-path="url(#p381e3602b6)" style="fill: #b7e3bc; stroke: #000000; stroke-linejoin: miter"/>
   </g>
   <g id="patch_131">
    <path d="M 163.782857 272.121818 
L 170.434286 272.121818 
L 170.434286 170.558182 
L 163.782857 170.558182 
z
" clip-path="url(#p381e3602b6)" style="fill: #1c7cb6; stroke: #000000; stroke-linejoin: miter"/>
   </g>
   <g id="patch_132">
    <path d="M 170.434286 272.121818 
L 177.085714 272.121818 
L 177.085714 170.558182 
L 170.434286 170.558182 
z
" clip-path="url(#p381e3602b6)" style="fill: #50b4d2; stroke: #000000; stroke-linejoin: miter"/>
   </g>
   <g id="patch_133">
    <path d="M 177.085714 272.121818 
L 183.737143 272.121818 
L 183.737143 170.558182 
L 177.085714 170.558182 
z
" clip-path="url(#p381e3602b6)" style="fill: #4aafd1; stroke: #000000; stroke-linejoin: miter"/>
   </g>
   <g id="patch_134">
    <path d="M 183.737143 272.121818 
L 190.388571 272.121818 
L 190.388571 170.558182 
L 183.737143 170.558182 
z
" clip-path="url(#p381e3602b6)" style="fill: #b2e1b9; stroke: #000000; stroke-linejoin: miter"/>
   </g>
   <g id="patch_135">
    <path d="M 190.388571 272.121818 
L 197.04 272.121818 
L 197.04 170.558182 
L 190.388571 170.558182 
z
" clip-path="url(#p381e3602b6)" style="fill: #084081; stroke: #000000; stroke-linejoin: miter"/>
   </g>
   <g id="patch_136">
    <path d="M 197.04 272.121818 
L 203.691429 272.121818 
L 203.691429 170.558182 
L 197.04 170.558182 
z
" clip-path="url(#p381e3602b6)" style="fill: #0866a9; stroke: #000000; stroke-linejoin: miter"/>
   </g>
   <g id="patch_137">
    <path d="M 203.691429 272.121818 
L 210.342857 272.121818 
L 210.342857 170.558182 
L 203.691429 170.558182 
z
" clip-path="url(#p381e3602b6)" style="fill: #1272b1; stroke: #000000; stroke-linejoin: miter"/>
   </g>
   <g id="patch_138">
    <path d="M 210.342857 272.121818 
L 216.994286 272.121818 
L 216.994286 170.558182 
L 210.342857 170.558182 
z
" clip-path="url(#p381e3602b6)" style="fill: #3294c2; stroke: #000000; stroke-linejoin: miter"/>
   </g>
   <g id="patch_139">
    <path d="M 216.994286 272.121818 
L 223.645714 272.121818 
L 223.645714 170.558182 
L 216.994286 170.558182 
z
" clip-path="url(#p381e3602b6)" style="fill: #0a6aad; stroke: #000000; stroke-linejoin: miter"/>
   </g>
   <g id="patch_140">
    <path d="M 223.645714 272.121818 
L 230.297143 272.121818 
L 230.297143 170.558182 
L 223.645714 170.558182 
z
" clip-path="url(#p381e3602b6)" style="fill: #085497; stroke: #000000; stroke-linejoin: miter"/>
   </g>
   <g id="patch_141">
    <path d="M 230.297143 272.121818 
L 236.948571 272.121818 
L 236.948571 170.558182 
L 230.297143 170.558182 
z
" clip-path="url(#p381e3602b6)" style="fill: #2283ba; stroke: #000000; stroke-linejoin: miter"/>
   </g>
   <g id="patch_142">
    <path d="M 236.948571 272.121818 
L 243.6 272.121818 
L 243.6 170.558182 
L 236.948571 170.558182 
z
" clip-path="url(#p381e3602b6)" style="fill: #43a7cd; stroke: #000000; stroke-linejoin: miter"/>
   </g>
   <g id="patch_143">
    <path d="M 243.6 272.121818 
L 250.251429 272.121818 
L 250.251429 170.558182 
L 243.6 170.558182 
z
" clip-path="url(#p381e3602b6)" style="fill: #7fcdc3; stroke: #000000; stroke-linejoin: miter"/>
   </g>
   <g id="patch_144">
    <path d="M 250.251429 272.121818 
L 256.902857 272.121818 
L 256.902857 170.558182 
L 250.251429 170.558182 
z
" clip-path="url(#p381e3602b6)" style="fill: #95d6bb; stroke: #000000; stroke-linejoin: miter"/>
   </g>
   <g id="patch_145">
    <path d="M 256.902857 272.121818 
L 263.554286 272.121818 
L 263.554286 170.558182 
L 256.902857 170.558182 
z
" clip-path="url(#p381e3602b6)" style="fill: #3a9cc7; stroke: #000000; stroke-linejoin: miter"/>
   </g>
   <g id="patch_146">
    <path d="M 263.554286 272.121818 
L 270.205714 272.121818 
L 270.205714 170.558182 
L 263.554286 170.558182 
z
" clip-path="url(#p381e3602b6)" style="fill: #2c8ebf; stroke: #000000; stroke-linejoin: miter"/>
   </g>
   <g id="patch_147">
    <path d="M 270.205714 272.121818 
L 276.857143 272.121818 
L 276.857143 170.558182 
L 270.205714 170.558182 
z
" clip-path="url(#p381e3602b6)" style="fill: #1677b3; stroke: #000000; stroke-linejoin: miter"/>
   </g>
   <g id="patch_148">
    <path d="M 276.857143 272.121818 
L 283.508571 272.121818 
L 283.508571 170.558182 
L 276.857143 170.558182 
z
" clip-path="url(#p381e3602b6)" style="fill: #bce5be; stroke: #000000; stroke-linejoin: miter"/>
   </g>
   <g id="patch_149">
    <path d="M 283.508571 272.121818 
L 290.16 272.121818 
L 290.16 170.558182 
L 283.508571 170.558182 
z
" clip-path="url(#p381e3602b6)" style="fill: #3091c1; stroke: #000000; stroke-linejoin: miter"/>
   </g>
   <g id="patch_150">
    <path d="M 290.16 272.121818 
L 296.811429 272.121818 
L 296.811429 170.558182 
L 290.16 170.558182 
z
" clip-path="url(#p381e3602b6)" style="fill: #58b9d0; stroke: #000000; stroke-linejoin: miter"/>
   </g>
   <g id="patch_151">
    <path d="M 296.811429 272.121818 
L 303.462857 272.121818 
L 303.462857 170.558182 
L 296.811429 170.558182 
z
" clip-path="url(#p381e3602b6)" style="fill: #5abacf; stroke: #000000; stroke-linejoin: miter"/>
   </g>
   <g id="patch_152">
    <path d="M 303.462857 272.121818 
L 310.114286 272.121818 
L 310.114286 170.558182 
L 303.462857 170.558182 
z
" clip-path="url(#p381e3602b6)" style="fill: #b5e2bb; stroke: #000000; stroke-linejoin: miter"/>
   </g>
   <g id="patch_153">
    <path d="M 310.114286 272.121818 
L 316.765714 272.121818 
L 316.765714 170.558182 
L 310.114286 170.558182 
z
" clip-path="url(#p381e3602b6)" style="fill: #9ed9b8; stroke: #000000; stroke-linejoin: miter"/>
   </g>
   <g id="patch_154">
    <path d="M 316.765714 272.121818 
L 323.417143 272.121818 
L 323.417143 170.558182 
L 316.765714 170.558182 
z
" clip-path="url(#p381e3602b6)" style="fill: #98d7ba; stroke: #000000; stroke-linejoin: miter"/>
   </g>
   <g id="patch_155">
    <path d="M 323.417143 272.121818 
L 330.068571 272.121818 
L 330.068571 170.558182 
L 323.417143 170.558182 
z
" clip-path="url(#p381e3602b6)" style="fill: #5dbbce; stroke: #000000; stroke-linejoin: miter"/>
   </g>
   <g id="patch_156">
    <path d="M 330.068571 272.121818 
L 336.72 272.121818 
L 336.72 170.558182 
L 330.068571 170.558182 
z
" clip-path="url(#p381e3602b6)" style="fill: #62becc; stroke: #000000; stroke-linejoin: miter"/>
   </g>
   <g id="patch_157">
    <path d="M 336.72 272.121818 
L 343.371429 272.121818 
L 343.371429 170.558182 
L 336.72 170.558182 
z
" clip-path="url(#p381e3602b6)" style="fill: #b4e2ba; stroke: #000000; stroke-linejoin: miter"/>
   </g>
   <g id="patch_158">
    <path d="M 343.371429 272.121818 
L 350.022857 272.121818 
L 350.022857 170.558182 
L 343.371429 170.558182 
z
" clip-path="url(#p381e3602b6)" style="fill: #085294; stroke: #000000; stroke-linejoin: miter"/>
   </g>
   <g id="patch_159">
    <path d="M 350.022857 272.121818 
L 356.674286 272.121818 
L 356.674286 170.558182 
L 350.022857 170.558182 
z
" clip-path="url(#p381e3602b6)" style="fill: #3496c3; stroke: #000000; stroke-linejoin: miter"/>
   </g>
   <g id="patch_160">
    <path d="M 356.674286 272.121818 
L 363.325714 272.121818 
L 363.325714 170.558182 
L 356.674286 170.558182 
z
" clip-path="url(#p381e3602b6)" style="fill: #bee6bf; stroke: #000000; stroke-linejoin: miter"/>
   </g>
   <g id="patch_161">
    <path d="M 363.325714 272.121818 
L 369.977143 272.121818 
L 369.977143 170.558182 
L 363.325714 170.558182 
z
" clip-path="url(#p381e3602b6)" style="fill: #6cc4c9; stroke: #000000; stroke-linejoin: miter"/>
   </g>
   <g id="patch_162">
    <path d="M 369.977143 272.121818 
L 376.628571 272.121818 
L 376.628571 170.558182 
L 369.977143 170.558182 
z
" clip-path="url(#p381e3602b6)" style="fill: #7cccc4; stroke: #000000; stroke-linejoin: miter"/>
   </g>
   <g id="patch_163">
    <path d="M 376.628571 272.121818 
L 383.28 272.121818 
L 383.28 170.558182 
L 376.628571 170.558182 
z
" clip-path="url(#p381e3602b6)" style="fill: #46aace; stroke: #000000; stroke-linejoin: miter"/>
   </g>
   <g id="patch_164">
    <path d="M 383.28 272.121818 
L 389.931429 272.121818 
L 389.931429 170.558182 
L 383.28 170.558182 
z
" clip-path="url(#p381e3602b6)" style="fill: #a7ddb5; stroke: #000000; stroke-linejoin: miter"/>
   </g>
   <g id="patch_165">
    <path d="M 389.931429 272.121818 
L 396.582857 272.121818 
L 396.582857 170.558182 
L 389.931429 170.558182 
z
" clip-path="url(#p381e3602b6)" style="fill: #69c2ca; stroke: #000000; stroke-linejoin: miter"/>
   </g>
   <g id="patch_166">
    <path d="M 396.582857 272.121818 
L 403.234286 272.121818 
L 403.234286 170.558182 
L 396.582857 170.558182 
z
" clip-path="url(#p381e3602b6)" style="fill: #88d1c0; stroke: #000000; stroke-linejoin: miter"/>
   </g>
   <g id="patch_167">
    <path d="M 403.234286 272.121818 
L 409.885714 272.121818 
L 409.885714 170.558182 
L 403.234286 170.558182 
z
" clip-path="url(#p381e3602b6)" style="fill: #42a6cc; stroke: #000000; stroke-linejoin: miter"/>
   </g>
   <g id="patch_168">
    <path d="M 409.885714 272.121818 
L 416.537143 272.121818 
L 416.537143 170.558182 
L 409.885714 170.558182 
z
" clip-path="url(#p381e3602b6)" style="fill: #aadeb6; stroke: #000000; stroke-linejoin: miter"/>
   </g>
   <g id="patch_169">
    <path d="M 416.537143 272.121818 
L 423.188571 272.121818 
L 423.188571 170.558182 
L 416.537143 170.558182 
z
" clip-path="url(#p381e3602b6)" style="fill: #75c8c6; stroke: #000000; stroke-linejoin: miter"/>
   </g>
   <g id="patch_170">
    <path d="M 423.188571 272.121818 
L 429.84 272.121818 
L 429.84 170.558182 
L 423.188571 170.558182 
z
" clip-path="url(#p381e3602b6)" style="fill: #2687bb; stroke: #000000; stroke-linejoin: miter"/>
   </g>
   <g id="patch_171">
    <path d="M 429.84 272.121818 
L 436.491429 272.121818 
L 436.491429 170.558182 
L 429.84 170.558182 
z
" clip-path="url(#p381e3602b6)" style="fill: #389bc6; stroke: #000000; stroke-linejoin: miter"/>
   </g>
   <g id="patch_172">
    <path d="M 436.491429 272.121818 
L 443.142857 272.121818 
L 443.142857 170.558182 
L 436.491429 170.558182 
z
" clip-path="url(#p381e3602b6)" style="fill: #0d6dae; stroke: #000000; stroke-linejoin: miter"/>
   </g>
   <g id="patch_173">
    <path d="M 443.142857 272.121818 
L 449.794286 272.121818 
L 449.794286 170.558182 
L 443.142857 170.558182 
z
" clip-path="url(#p381e3602b6)" style="fill: #085fa3; stroke: #000000; stroke-linejoin: miter"/>
   </g>
   <g id="patch_174">
    <path d="M 449.794286 272.121818 
L 456.445714 272.121818 
L 456.445714 170.558182 
L 449.794286 170.558182 
z
" clip-path="url(#p381e3602b6)" style="fill: #72c7c7; stroke: #000000; stroke-linejoin: miter"/>
   </g>
   <g id="patch_175">
    <path d="M 456.445714 272.121818 
L 463.097143 272.121818 
L 463.097143 170.558182 
L 456.445714 170.558182 
z
" clip-path="url(#p381e3602b6)" style="fill: #0862a5; stroke: #000000; stroke-linejoin: miter"/>
   </g>
   <g id="patch_176">
    <path d="M 463.097143 272.121818 
L 469.748571 272.121818 
L 469.748571 170.558182 
L 463.097143 170.558182 
z
" clip-path="url(#p381e3602b6)" style="fill: #9fdab8; stroke: #000000; stroke-linejoin: miter"/>
   </g>
   <g id="patch_177">
    <path d="M 469.748571 272.121818 
L 476.4 272.121818 
L 476.4 170.558182 
L 469.748571 170.558182 
z
" clip-path="url(#p381e3602b6)" style="fill: #085799; stroke: #000000; stroke-linejoin: miter"/>
   </g>
   <g id="patch_178">
    <path d="M 476.4 272.121818 
L 483.051429 272.121818 
L 483.051429 170.558182 
L 476.4 170.558182 
z
" clip-path="url(#p381e3602b6)" style="fill: #92d5bc; stroke: #000000; stroke-linejoin: miter"/>
   </g>
   <g id="patch_179">
    <path d="M 483.051429 272.121818 
L 489.702857 272.121818 
L 489.702857 170.558182 
L 483.051429 170.558182 
z
" clip-path="url(#p381e3602b6)" style="fill: #79cbc5; stroke: #000000; stroke-linejoin: miter"/>
   </g>
   <g id="patch_180">
    <path d="M 489.702857 272.121818 
L 496.354286 272.121818 
L 496.354286 170.558182 
L 489.702857 170.558182 
z
" clip-path="url(#p381e3602b6)" style="fill: #48accf; stroke: #000000; stroke-linejoin: miter"/>
   </g>
   <g id="patch_181">
    <path d="M 496.354286 272.121818 
L 503.005714 272.121818 
L 503.005714 170.558182 
L 496.354286 170.558182 
z
" clip-path="url(#p381e3602b6)" style="fill: #084485; stroke: #000000; stroke-linejoin: miter"/>
   </g>
   <g id="patch_182">
    <path d="M 503.005714 272.121818 
L 509.657143 272.121818 
L 509.657143 170.558182 
L 503.005714 170.558182 
z
" clip-path="url(#p381e3602b6)" style="fill: #084182; stroke: #000000; stroke-linejoin: miter"/>
   </g>
   <g id="patch_183">
    <path d="M 509.657143 272.121818 
L 516.308571 272.121818 
L 516.308571 170.558182 
L 509.657143 170.558182 
z
" clip-path="url(#p381e3602b6)" style="fill: #2081b8; stroke: #000000; stroke-linejoin: miter"/>
   </g>
   <g id="patch_184">
    <path d="M 516.308571 272.121818 
L 522.96 272.121818 
L 522.96 170.558182 
L 516.308571 170.558182 
z
" clip-path="url(#p381e3602b6)" style="fill: #8fd4bd; stroke: #000000; stroke-linejoin: miter"/>
   </g>
   <g id="patch_185">
    <path d="M 522.96 272.121818 
L 529.611429 272.121818 
L 529.611429 170.558182 
L 522.96 170.558182 
z
" clip-path="url(#p381e3602b6)" style="fill: #084b8d; stroke: #000000; stroke-linejoin: miter"/>
   </g>
   <g id="patch_186">
    <path d="M 529.611429 272.121818 
L 536.262857 272.121818 
L 536.262857 170.558182 
L 529.611429 170.558182 
z
" clip-path="url(#p381e3602b6)" style="fill: #1a7ab5; stroke: #000000; stroke-linejoin: miter"/>
   </g>
   <g id="patch_187">
    <path d="M 536.262857 272.121818 
L 542.914286 272.121818 
L 542.914286 170.558182 
L 536.262857 170.558182 
z
" clip-path="url(#p381e3602b6)" style="fill: #1070b0; stroke: #000000; stroke-linejoin: miter"/>
   </g>
   <g id="patch_188">
    <path d="M 542.914286 272.121818 
L 549.565714 272.121818 
L 549.565714 170.558182 
L 542.914286 170.558182 
z
" clip-path="url(#p381e3602b6)" style="fill: #83cfc1; stroke: #000000; stroke-linejoin: miter"/>
   </g>
   <g id="patch_189">
    <path d="M 549.565714 272.121818 
L 556.217143 272.121818 
L 556.217143 170.558182 
L 549.565714 170.558182 
z
" clip-path="url(#p381e3602b6)" style="fill: #65c0cb; stroke: #000000; stroke-linejoin: miter"/>
   </g>
   <g id="patch_190">
    <path d="M 556.217143 272.121818 
L 562.868571 272.121818 
L 562.868571 170.558182 
L 556.217143 170.558182 
z
" clip-path="url(#p381e3602b6)" style="fill: #0868ac; stroke: #000000; stroke-linejoin: miter"/>
   </g>
   <g id="patch_191">
    <path d="M 562.868571 272.121818 
L 569.52 272.121818 
L 569.52 170.558182 
L 562.868571 170.558182 
z
" clip-path="url(#p381e3602b6)" style="fill: #4db2d3; stroke: #000000; stroke-linejoin: miter"/>
   </g>
   <g id="patch_192">
    <path d="M 569.52 272.121818 
L 576.171429 272.121818 
L 576.171429 170.558182 
L 569.52 170.558182 
z
" clip-path="url(#p381e3602b6)" style="fill: #5fbdcd; stroke: #000000; stroke-linejoin: miter"/>
   </g>
   <g id="patch_193">
    <path d="M 576.171429 272.121818 
L 582.822857 272.121818 
L 582.822857 170.558182 
L 576.171429 170.558182 
z
" clip-path="url(#p381e3602b6)" style="fill: #2889bc; stroke: #000000; stroke-linejoin: miter"/>
   </g>
   <g id="patch_194">
    <path d="M 582.822857 272.121818 
L 589.474286 272.121818 
L 589.474286 170.558182 
L 582.822857 170.558182 
z
" clip-path="url(#p381e3602b6)" style="fill: #3699c5; stroke: #000000; stroke-linejoin: miter"/>
   </g>
   <g id="patch_195">
    <path d="M 589.474286 272.121818 
L 596.125714 272.121818 
L 596.125714 170.558182 
L 589.474286 170.558182 
z
" clip-path="url(#p381e3602b6)" style="fill: #a5dcb6; stroke: #000000; stroke-linejoin: miter"/>
   </g>
   <g id="patch_196">
    <path d="M 596.125714 272.121818 
L 602.777143 272.121818 
L 602.777143 170.558182 
L 596.125714 170.558182 
z
" clip-path="url(#p381e3602b6)" style="fill: #08589b; stroke: #000000; stroke-linejoin: miter"/>
   </g>
   <g id="patch_197">
    <path d="M 602.777143 272.121818 
L 609.428571 272.121818 
L 609.428571 170.558182 
L 602.777143 170.558182 
z
" clip-path="url(#p381e3602b6)" style="fill: #1e7fb7; stroke: #000000; stroke-linejoin: miter"/>
   </g>
   <g id="patch_198">
    <path d="M 609.428571 272.121818 
L 616.08 272.121818 
L 616.08 170.558182 
L 609.428571 170.558182 
z
" clip-path="url(#p381e3602b6)" style="fill: #085a9d; stroke: #000000; stroke-linejoin: miter"/>
   </g>
   <g id="patch_199">
    <path d="M 616.08 272.121818 
L 622.731429 272.121818 
L 622.731429 170.558182 
L 616.08 170.558182 
z
" clip-path="url(#p381e3602b6)" style="fill: #68c1ca; stroke: #000000; stroke-linejoin: miter"/>
   </g>
   <g id="patch_200">
    <path d="M 622.731429 272.121818 
L 629.382857 272.121818 
L 629.382857 170.558182 
L 622.731429 170.558182 
z
" clip-path="url(#p381e3602b6)" style="fill: #8ed3be; stroke: #000000; stroke-linejoin: miter"/>
   </g>
   <g id="patch_201">
    <path d="M 629.382857 272.121818 
L 636.034286 272.121818 
L 636.034286 170.558182 
L 629.382857 170.558182 
z
" clip-path="url(#p381e3602b6)" style="fill: #0863a7; stroke: #000000; stroke-linejoin: miter"/>
   </g>
   <g id="patch_202">
    <path d="M 636.034286 272.121818 
L 642.685714 272.121818 
L 642.685714 170.558182 
L 636.034286 170.558182 
z
" clip-path="url(#p381e3602b6)" style="fill: #abdeb6; stroke: #000000; stroke-linejoin: miter"/>
   </g>
   <g id="patch_203">
    <path d="M 642.685714 272.121818 
L 649.337143 272.121818 
L 649.337143 170.558182 
L 642.685714 170.558182 
z
" clip-path="url(#p381e3602b6)" style="fill: #084688; stroke: #000000; stroke-linejoin: miter"/>
   </g>
   <g id="patch_204">
    <path d="M 649.337143 272.121818 
L 655.988571 272.121818 
L 655.988571 170.558182 
L 649.337143 170.558182 
z
" clip-path="url(#p381e3602b6)" style="fill: #2484ba; stroke: #000000; stroke-linejoin: miter"/>
   </g>
   <g id="patch_205">
    <path d="M 655.988571 272.121818 
L 662.64 272.121818 
L 662.64 170.558182 
L 655.988571 170.558182 
z
" clip-path="url(#p381e3602b6)" style="fill: #2a8bbe; stroke: #000000; stroke-linejoin: miter"/>
   </g>
   <g id="patch_206">
    <path d="M 662.64 272.121818 
L 669.291429 272.121818 
L 669.291429 170.558182 
L 662.64 170.558182 
z
" clip-path="url(#p381e3602b6)" style="fill: #4cb1d2; stroke: #000000; stroke-linejoin: miter"/>
   </g>
   <g id="patch_207">
    <path d="M 669.291429 272.121818 
L 675.942857 272.121818 
L 675.942857 170.558182 
L 669.291429 170.558182 
z
" clip-path="url(#p381e3602b6)" style="fill: #53b6d1; stroke: #000000; stroke-linejoin: miter"/>
   </g>
   <g id="patch_208">
    <path d="M 10.8 272.121818 
L 409.885714 272.121818 
L 409.885714 170.558182 
L 10.8 170.558182 
z
" clip-path="url(#p381e3602b6)" style="fill: url(#h24f9d9833d); stroke-dasharray: 14.8,6.4; stroke-dashoffset: 0; stroke: #0000ff; stroke-width: 4; stroke-linejoin: miter"/>
   </g>
   <g id="patch_209">
    <path d="M 409.885714 272.121818 
L 542.914286 272.121818 
L 542.914286 170.558182 
L 409.885714 170.558182 
z
" clip-path="url(#p381e3602b6)" style="fill: url(#h55d3019104); stroke-dasharray: 14.8,6.4; stroke-dashoffset: 0; stroke: #008000; stroke-width: 4; stroke-linejoin: miter"/>
   </g>
   <g id="patch_210">
    <path d="M 542.914286 272.121818 
L 675.942857 272.121818 
L 675.942857 170.558182 
L 542.914286 170.558182 
z
" clip-path="url(#p381e3602b6)" style="fill: url(#hd98671cce2); stroke-dasharray: 14.8,6.4; stroke-dashoffset: 0; stroke: #ff0000; stroke-width: 4; stroke-linejoin: miter"/>
   </g>
   <g id="matplotlib.axis_3"/>
   <g id="matplotlib.axis_4"/>
   <g id="patch_211">
    <path d="M 10.8 277.2 
L 10.8 165.48 
" style="fill: none; stroke: #000000; stroke-width: 0.8; stroke-linejoin: miter; stroke-linecap: square"/>
   </g>
   <g id="patch_212">
    <path d="M 709.2 277.2 
L 709.2 165.48 
" style="fill: none; stroke: #000000; stroke-width: 0.8; stroke-linejoin: miter; stroke-linecap: square"/>
   </g>
   <g id="patch_213">
    <path d="M 10.8 277.2 
L 709.2 277.2 
" style="fill: none; stroke: #000000; stroke-width: 0.8; stroke-linejoin: miter; stroke-linecap: square"/>
   </g>
   <g id="patch_214">
    <path d="M 10.8 165.48 
L 709.2 165.48 
" style="fill: none; stroke: #000000; stroke-width: 0.8; stroke-linejoin: miter; stroke-linecap: square"/>
   </g>
   <g id="text_2">
    <!-- Data Splitting After Shuffling -->
    <g transform="translate(274.030313 159.48) scale(0.12 -0.12)">
     <defs>
      <path id="DejaVuSans-70" d="M 1159 525 
L 1159 -1331 
L 581 -1331 
L 581 3500 
L 1159 3500 
L 1159 2969 
Q 1341 3281 1617 3432 
Q 1894 3584 2278 3584 
Q 2916 3584 3314 3078 
Q 3713 2572 3713 1747 
Q 3713 922 3314 415 
Q 2916 -91 2278 -91 
Q 1894 -91 1617 61 
Q 1341 213 1159 525 
z
M 3116 1747 
Q 3116 2381 2855 2742 
Q 2594 3103 2138 3103 
Q 1681 3103 1420 2742 
Q 1159 2381 1159 1747 
Q 1159 1113 1420 752 
Q 1681 391 2138 391 
Q 2594 391 2855 752 
Q 3116 1113 3116 1747 
z
" transform="scale(0.015625)"/>
      <path id="DejaVuSans-41" d="M 2188 4044 
L 1331 1722 
L 3047 1722 
L 2188 4044 
z
M 1831 4666 
L 2547 4666 
L 4325 0 
L 3669 0 
L 3244 1197 
L 1141 1197 
L 716 0 
L 50 0 
L 1831 4666 
z
" transform="scale(0.015625)"/>
     </defs>
     <use xlink:href="#DejaVuSans-44"/>
     <use xlink:href="#DejaVuSans-61" x="77.001953"/>
     <use xlink:href="#DejaVuSans-74" x="138.28125"/>
     <use xlink:href="#DejaVuSans-61" x="177.490234"/>
     <use xlink:href="#DejaVuSans-20" x="238.769531"/>
     <use xlink:href="#DejaVuSans-53" x="270.556641"/>
     <use xlink:href="#DejaVuSans-70" x="334.033203"/>
     <use xlink:href="#DejaVuSans-6c" x="397.509766"/>
     <use xlink:href="#DejaVuSans-69" x="425.292969"/>
     <use xlink:href="#DejaVuSans-74" x="453.076172"/>
     <use xlink:href="#DejaVuSans-74" x="492.285156"/>
     <use xlink:href="#DejaVuSans-69" x="531.494141"/>
     <use xlink:href="#DejaVuSans-6e" x="559.277344"/>
     <use xlink:href="#DejaVuSans-67" x="622.65625"/>
     <use xlink:href="#DejaVuSans-20" x="686.132812"/>
     <use xlink:href="#DejaVuSans-41" x="717.919922"/>
     <use xlink:href="#DejaVuSans-66" x="782.703125"/>
     <use xlink:href="#DejaVuSans-74" x="816.158203"/>
     <use xlink:href="#DejaVuSans-65" x="855.367188"/>
     <use xlink:href="#DejaVuSans-72" x="916.890625"/>
     <use xlink:href="#DejaVuSans-20" x="958.003906"/>
     <use xlink:href="#DejaVuSans-53" x="989.791016"/>
     <use xlink:href="#DejaVuSans-68" x="1053.267578"/>
     <use xlink:href="#DejaVuSans-75" x="1116.646484"/>
     <use xlink:href="#DejaVuSans-66" x="1180.025391"/>
     <use xlink:href="#DejaVuSans-66" x="1215.230469"/>
     <use xlink:href="#DejaVuSans-6c" x="1250.435547"/>
     <use xlink:href="#DejaVuSans-69" x="1278.21875"/>
     <use xlink:href="#DejaVuSans-6e" x="1306.001953"/>
     <use xlink:href="#DejaVuSans-67" x="1369.380859"/>
    </g>
   </g>
   <g id="legend_1">
    <g id="patch_215">
     <path d="M 601.21875 232.1925 
L 702.2 232.1925 
Q 704.2 232.1925 704.2 230.1925 
L 704.2 172.48 
Q 704.2 170.48 702.2 170.48 
L 601.21875 170.48 
Q 599.21875 170.48 599.21875 172.48 
L 599.21875 230.1925 
Q 599.21875 232.1925 601.21875 232.1925 
z
" style="fill: #ffffff; opacity: 0.8; stroke: #cccccc; stroke-linejoin: miter"/>
    </g>
    <g id="text_3">
     <!-- Data Sets -->
     <g transform="translate(627.366406 182.078438) scale(0.1 -0.1)">
      <defs>
       <path id="DejaVuSans-73" d="M 2834 3397 
L 2834 2853 
Q 2591 2978 2328 3040 
Q 2066 3103 1784 3103 
Q 1356 3103 1142 2972 
Q 928 2841 928 2578 
Q 928 2378 1081 2264 
Q 1234 2150 1697 2047 
L 1894 2003 
Q 2506 1872 2764 1633 
Q 3022 1394 3022 966 
Q 3022 478 2636 193 
Q 2250 -91 1575 -91 
Q 1294 -91 989 -36 
Q 684 19 347 128 
L 347 722 
Q 666 556 975 473 
Q 1284 391 1588 391 
Q 1994 391 2212 530 
Q 2431 669 2431 922 
Q 2431 1156 2273 1281 
Q 2116 1406 1581 1522 
L 1381 1569 
Q 847 1681 609 1914 
Q 372 2147 372 2553 
Q 372 3047 722 3315 
Q 1072 3584 1716 3584 
Q 2034 3584 2315 3537 
Q 2597 3491 2834 3397 
z
" transform="scale(0.015625)"/>
      </defs>
      <use xlink:href="#DejaVuSans-44"/>
      <use xlink:href="#DejaVuSans-61" x="77.001953"/>
      <use xlink:href="#DejaVuSans-74" x="138.28125"/>
      <use xlink:href="#DejaVuSans-61" x="177.490234"/>
      <use xlink:href="#DejaVuSans-20" x="238.769531"/>
      <use xlink:href="#DejaVuSans-53" x="270.556641"/>
      <use xlink:href="#DejaVuSans-65" x="334.033203"/>
      <use xlink:href="#DejaVuSans-74" x="395.556641"/>
      <use xlink:href="#DejaVuSans-73" x="434.765625"/>
     </g>
    </g>
    <g id="patch_216">
     <path d="M 603.21875 196.756563 
L 623.21875 196.756563 
L 623.21875 189.756563 
L 603.21875 189.756563 
z
" style="fill: #0000ff; stroke: #0000ff; stroke-linejoin: miter"/>
    </g>
    <g id="text_4">
     <!-- Training Set -->
     <g transform="translate(631.21875 196.756563) scale(0.1 -0.1)">
      <defs>
       <path id="DejaVuSans-54" d="M -19 4666 
L 3928 4666 
L 3928 4134 
L 2272 4134 
L 2272 0 
L 1638 0 
L 1638 4134 
L -19 4134 
L -19 4666 
z
" transform="scale(0.015625)"/>
      </defs>
      <use xlink:href="#DejaVuSans-54"/>
      <use xlink:href="#DejaVuSans-72" x="46.333984"/>
      <use xlink:href="#DejaVuSans-61" x="87.447266"/>
      <use xlink:href="#DejaVuSans-69" x="148.726562"/>
      <use xlink:href="#DejaVuSans-6e" x="176.509766"/>
      <use xlink:href="#DejaVuSans-69" x="239.888672"/>
      <use xlink:href="#DejaVuSans-6e" x="267.671875"/>
      <use xlink:href="#DejaVuSans-67" x="331.050781"/>
      <use xlink:href="#DejaVuSans-20" x="394.527344"/>
      <use xlink:href="#DejaVuSans-53" x="426.314453"/>
      <use xlink:href="#DejaVuSans-65" x="489.791016"/>
      <use xlink:href="#DejaVuSans-74" x="551.314453"/>
     </g>
    </g>
    <g id="patch_217">
     <path d="M 603.21875 211.434687 
L 623.21875 211.434687 
L 623.21875 204.434687 
L 603.21875 204.434687 
z
" style="fill: #008000; stroke: #008000; stroke-linejoin: miter"/>
    </g>
    <g id="text_5">
     <!-- Validation Set -->
     <g transform="translate(631.21875 211.434687) scale(0.1 -0.1)">
      <defs>
       <path id="DejaVuSans-56" d="M 1831 0 
L 50 4666 
L 709 4666 
L 2188 738 
L 3669 4666 
L 4325 4666 
L 2547 0 
L 1831 0 
z
" transform="scale(0.015625)"/>
       <path id="DejaVuSans-64" d="M 2906 2969 
L 2906 4863 
L 3481 4863 
L 3481 0 
L 2906 0 
L 2906 525 
Q 2725 213 2448 61 
Q 2172 -91 1784 -91 
Q 1150 -91 751 415 
Q 353 922 353 1747 
Q 353 2572 751 3078 
Q 1150 3584 1784 3584 
Q 2172 3584 2448 3432 
Q 2725 3281 2906 2969 
z
M 947 1747 
Q 947 1113 1208 752 
Q 1469 391 1925 391 
Q 2381 391 2643 752 
Q 2906 1113 2906 1747 
Q 2906 2381 2643 2742 
Q 2381 3103 1925 3103 
Q 1469 3103 1208 2742 
Q 947 2381 947 1747 
z
" transform="scale(0.015625)"/>
      </defs>
      <use xlink:href="#DejaVuSans-56"/>
      <use xlink:href="#DejaVuSans-61" x="60.658203"/>
      <use xlink:href="#DejaVuSans-6c" x="121.9375"/>
      <use xlink:href="#DejaVuSans-69" x="149.720703"/>
      <use xlink:href="#DejaVuSans-64" x="177.503906"/>
      <use xlink:href="#DejaVuSans-61" x="240.980469"/>
      <use xlink:href="#DejaVuSans-74" x="302.259766"/>
      <use xlink:href="#DejaVuSans-69" x="341.46875"/>
      <use xlink:href="#DejaVuSans-6f" x="369.251953"/>
      <use xlink:href="#DejaVuSans-6e" x="430.433594"/>
      <use xlink:href="#DejaVuSans-20" x="493.8125"/>
      <use xlink:href="#DejaVuSans-53" x="525.599609"/>
      <use xlink:href="#DejaVuSans-65" x="589.076172"/>
      <use xlink:href="#DejaVuSans-74" x="650.599609"/>
     </g>
    </g>
    <g id="patch_218">
     <path d="M 603.21875 226.112813 
L 623.21875 226.112813 
L 623.21875 219.112813 
L 603.21875 219.112813 
z
" style="fill: #ff0000; stroke: #ff0000; stroke-linejoin: miter"/>
    </g>
    <g id="text_6">
     <!-- Test Set -->
     <g transform="translate(631.21875 226.112813) scale(0.1 -0.1)">
      <use xlink:href="#DejaVuSans-54"/>
      <use xlink:href="#DejaVuSans-65" x="44.083984"/>
      <use xlink:href="#DejaVuSans-73" x="105.607422"/>
      <use xlink:href="#DejaVuSans-74" x="157.707031"/>
      <use xlink:href="#DejaVuSans-20" x="196.916016"/>
      <use xlink:href="#DejaVuSans-53" x="228.703125"/>
      <use xlink:href="#DejaVuSans-65" x="292.179688"/>
      <use xlink:href="#DejaVuSans-74" x="353.703125"/>
     </g>
    </g>
   </g>
  </g>
 </g>
 <defs>
  <clipPath id="peadecff302">
   <rect x="10.8" y="26.88" width="698.4" height="111.72"/>
  </clipPath>
  <clipPath id="p381e3602b6">
   <rect x="10.8" y="165.48" width="698.4" height="111.72"/>
  </clipPath>
 </defs>
 <defs>
  <pattern id="h24f9d9833d" patternUnits="userSpaceOnUse" x="0" y="0" width="72" height="72">
   <rect x="0" y="0" width="73" height="73" fill="none"/>
   <path d="M -36 36 
L 36 -36 
M -30 42 
L 42 -30 
M -24 48 
L 48 -24 
M -18 54 
L 54 -18 
M -12 60 
L 60 -12 
M -6 66 
L 66 -6 
M 0 72 
L 72 0 
M 6 78 
L 78 6 
M 12 84 
L 84 12 
M 18 90 
L 90 18 
M 24 96 
L 96 24 
M 30 102 
L 102 30 
M 36 108 
L 108 36 
" style="fill: #0000ff; stroke: #0000ff; stroke-width: 1.0; stroke-linecap: butt; stroke-linejoin: miter"/>
  </pattern>
  <pattern id="h55d3019104" patternUnits="userSpaceOnUse" x="0" y="0" width="72" height="72">
   <rect x="0" y="0" width="73" height="73" fill="none"/>
   <path d="M -36 36 
L 36 -36 
M -30 42 
L 42 -30 
M -24 48 
L 48 -24 
M -18 54 
L 54 -18 
M -12 60 
L 60 -12 
M -6 66 
L 66 -6 
M 0 72 
L 72 0 
M 6 78 
L 78 6 
M 12 84 
L 84 12 
M 18 90 
L 90 18 
M 24 96 
L 96 24 
M 30 102 
L 102 30 
M 36 108 
L 108 36 
" style="fill: #008000; stroke: #008000; stroke-width: 1.0; stroke-linecap: butt; stroke-linejoin: miter"/>
  </pattern>
  <pattern id="hd98671cce2" patternUnits="userSpaceOnUse" x="0" y="0" width="72" height="72">
   <rect x="0" y="0" width="73" height="73" fill="none"/>
   <path d="M -36 36 
L 36 -36 
M -30 42 
L 42 -30 
M -24 48 
L 48 -24 
M -18 54 
L 54 -18 
M -12 60 
L 60 -12 
M -6 66 
L 66 -6 
M 0 72 
L 72 0 
M 6 78 
L 78 6 
M 12 84 
L 84 12 
M 18 90 
L 90 18 
M 24 96 
L 96 24 
M 30 102 
L 102 30 
M 36 108 
L 108 36 
" style="fill: #ff0000; stroke: #ff0000; stroke-width: 1.0; stroke-linecap: butt; stroke-linejoin: miter"/>
  </pattern>
 </defs>
</svg>
